<svg xmlns="http://www.w3.org/2000/svg" width="160" height="160" viewBox="0 0 160 160">
  <g stroke="#00e5ff" stroke-opacity="0.08" stroke-width="1">
    <path d="M 0 12 H 160" />
    <path d="M 0 44 H 160" />
    <path d="M 0 76 H 160" />
    <path d="M 0 108 H 160" />
    <path d="M 0 140 H 160" />
    <path d="M 22 0 V 160" />
    <path d="M 54 0 V 160" />
    <path d="M 86 0 V 160" />
    <path d="M 118 0 V 160" />
    <path d="M 150 0 V 160" />
  </g>
  <g fill="#39ffb6" fill-opacity="0.06">
    <rect x="18" y="18" width="2" height="2" />
    <rect x="66" y="30" width="2" height="2" />
    <rect x="106" y="54" width="2" height="2" />
    <rect x="138" y="82" width="2" height="2" />
    <rect x="42" y="106" width="2" height="2" />
    <rect x="92" y="130" width="2" height="2" />
  </g>
  <g fill="#ff3af2" fill-opacity="0.045">
    <circle cx="132" cy="28" r="1.2" />
    <circle cx="24" cy="92" r="1.1" />
    <circle cx="76" cy="120" r="1.3" />
  </g>
</svg>

